<svg width="12" height="12" xmlns="http://www.w3.org/2000/svg" xmlns:xlink="http://www.w3.org/1999/xlink" xml:space="preserve" overflow="hidden"><defs><clipPath id="clip0"><rect x="0" y="0" width="12" height="12"/></clipPath></defs><g clip-path="url(#clip0)"><path d="M0.461538 0.461538 11.4615 0.461538 11.4615 11.4615 0.461538 11.4615Z" stroke="#000000" stroke-width="0.940085" fill="#FFFFFF" fill-rule="evenodd"/><path d="M4.69231 5.53846C4.84615 5.53846 5 5.46154 5.15385 5.38462 5.23077 5.30769 5.30769 5.15385 5.30769 5 5.38462 4.84615 5.38462 4.53846 5.38462 4.15385 5.38462 3.76923 5.38462 3.53846 5.38462 3.38462 5.46154 3.23077 5.46154 3.07692 5.53846 2.92308 5.61539 2.84615 5.69231 2.76923 5.76923 2.69231 5.84615 2.61538 5.92308 2.53846 6.07692 2.53846 6.15385 2.46154 6.30769 2.46154 6.46154 2.46154L6.69231 2.46154 6.69231 3 6.53846 3C6.30769 3 6.15385 3.07692 6.07692 3.15385 6 3.23077 6 3.46154 6 3.69231 6 4.30769 6 4.69231 5.92308 4.84615 5.92308 5.15385 5.84615 5.30769 5.76923 5.46154 5.61539 5.61539 5.46154 5.69231 5.23077 5.76923 5.53846 5.92308 5.69231 6.07692 5.84615 6.30769 5.92308 6.53846 6 6.84615 6 7.38462 6 7.84615 6 8.07692 6 8.15385 6 8.30769 6.07692 8.46154 6.15385 8.46154 6.23077 8.53846 6.38462 8.61539 6.53846 8.61539L6.69231 8.61539 6.69231 9.15385 6.46154 9.15385C6.23077 9.15385 6.07692 9.07692 6 9.07692 5.84615 9 5.69231 8.92308 5.61539 8.84615 5.53846 8.69231 5.46154 8.53846 5.46154 8.38462 5.38462 8.15385 5.38462 7.92308 5.38462 7.46154 5.38462 7.07692 5.38462 6.76923 5.30769 6.61539 5.30769 6.46154 5.23077 6.30769 5.07692 6.23077 5 6.15385 4.84615 6.07692 4.69231 6.07692L4.69231 5.53846Z"/></g></svg>